G04 PROTEUS RS274X GERBER FILE*
%FSLAX26Y26*%
%MOIN*%
G01*
%ADD14C,0.040000*%
%ADD10R,0.070000X0.070000*%
%ADD11C,0.080000*%
%ADD12C,0.120000*%
%ADD13C,0.004000*%
D14*
X+720472Y+622047D02*
X+720472Y+540748D01*
X+670472Y+490748D01*
X+340354Y+490748D01*
X+290354Y+540748D01*
X+290354Y+1190748D01*
X+340354Y+1240748D01*
X+503346Y+1240748D01*
X+582677Y+1161417D01*
X+720472Y+622047D02*
X+989764Y+622047D01*
X+989764Y+720472D01*
X+389764Y+625984D02*
X+475000Y+540748D01*
X+565354Y+540748D01*
X+615354Y+590748D01*
X+615354Y+665748D01*
X+670079Y+720472D01*
X+889764Y+720472D01*
X+389764Y+625984D02*
X+389764Y+790748D01*
X+397638Y+798622D01*
X+397638Y+1161417D01*
X+1090551Y+279528D02*
X+1090551Y+440748D01*
X+1089764Y+441535D01*
X+1089764Y+720472D01*
X+456693Y+232283D02*
X+540354Y+232283D01*
X+587598Y+279528D01*
X+696850Y+279528D01*
X+1897488Y+1625984D02*
X+1757724Y+1765748D01*
X+165354Y+1765748D01*
X+115354Y+1715748D01*
X+115354Y+190748D01*
X+165354Y+140748D01*
X+1115354Y+140748D01*
X+1189764Y+215157D01*
X+1189764Y+720472D01*
X+1289764Y+720472D02*
X+1289764Y+290748D01*
X+1339764Y+240748D01*
X+2190354Y+240748D01*
X+2240354Y+290748D01*
X+2240354Y+1625984D01*
X+2094488Y+1625984D01*
X+1555118Y+350394D02*
X+1389764Y+515748D01*
X+1389764Y+720472D01*
X+1389764Y+1020472D02*
X+1389764Y+1265748D01*
X+1610386Y+1486370D01*
X+1610386Y+1618110D01*
X+1413386Y+1618110D02*
X+1315354Y+1520079D01*
X+1315354Y+1115748D01*
X+1289764Y+1090157D01*
X+1289764Y+1020472D01*
X+1752118Y+350394D02*
X+2140354Y+738630D01*
X+2140354Y+1090748D01*
X+2090354Y+1140748D01*
X+1610039Y+1140748D01*
X+1489764Y+1020472D01*
X+1153543Y+1618110D02*
X+1153543Y+1515748D01*
X+1089764Y+1451969D01*
X+1089764Y+1020472D01*
X+956543Y+1618110D02*
X+956543Y+1415748D01*
X+989764Y+1382528D01*
X+989764Y+1020472D01*
X+1949118Y+350394D02*
X+2140354Y+350394D01*
X+2190354Y+400394D01*
X+2190354Y+1415748D01*
X+2140354Y+1465748D01*
X+1765354Y+1465748D01*
X+1715354Y+1515748D01*
X+1715354Y+1665748D01*
X+1665354Y+1715748D01*
X+1315354Y+1715748D01*
X+1265354Y+1665748D01*
X+1265354Y+1340748D01*
X+1189764Y+1265157D01*
X+1189764Y+1020472D01*
X+192913Y+625984D02*
X+192913Y+1240748D01*
X+242913Y+1290748D01*
X+615354Y+1290748D01*
X+665354Y+1240748D01*
X+665354Y+865748D01*
X+1489764Y+720472D02*
X+1489764Y+815748D01*
X+1439764Y+865748D01*
X+665354Y+865748D01*
X+1489764Y+720472D02*
X+1665354Y+720472D01*
X+1724409Y+779528D01*
X+2039370Y+779528D01*
X+665354Y+865748D02*
X+523622Y+724016D01*
X+523622Y+622047D01*
X+192913Y+625984D02*
X+192913Y+396063D01*
X+356693Y+232283D01*
X+889764Y+1020472D02*
X+889764Y+1248031D01*
X+582677Y+1555118D01*
X+889764Y+1020472D02*
X+889764Y+940748D01*
X+1540354Y+940748D01*
X+1576134Y+976528D01*
X+2039370Y+976528D01*
X+582677Y+1555118D02*
X+397638Y+1555118D01*
D10*
X+889764Y+720472D03*
X+989764Y+720472D03*
X+1089764Y+720472D03*
X+1189764Y+720472D03*
X+1289764Y+720472D03*
X+1389764Y+720472D03*
X+1489764Y+720472D03*
X+1489764Y+1020472D03*
X+1389764Y+1020472D03*
X+1289764Y+1020472D03*
X+1189764Y+1020472D03*
X+1089764Y+1020472D03*
X+989764Y+1020472D03*
X+889764Y+1020472D03*
D11*
X+582677Y+1161417D03*
X+582677Y+1555118D03*
X+397638Y+1161417D03*
X+397638Y+1555118D03*
X+523622Y+622047D03*
X+720472Y+622047D03*
X+192913Y+625984D03*
X+389764Y+625984D03*
X+356693Y+232283D03*
X+456693Y+232283D03*
X+1090551Y+279528D03*
X+696850Y+279528D03*
D12*
X+2039370Y+779528D03*
X+2039370Y+976528D03*
X+2094488Y+1625984D03*
X+1897488Y+1625984D03*
X+1413386Y+1618110D03*
X+1610386Y+1618110D03*
X+956543Y+1618110D03*
X+1153543Y+1618110D03*
X+1555118Y+350394D03*
X+1752118Y+350394D03*
X+1949118Y+350394D03*
D13*
X+19685Y+23622D02*
X+2322835Y+23622D01*
X+2322835Y+1877953D01*
X+19685Y+1877953D01*
X+19685Y+23622D01*
M02*
