M48
INCH,TZ
T01C0.0300
T02C0.0600
%
T01
X+8898Y+7205
X+9898Y+7205
X+10898Y+7205
X+11898Y+7205
X+12898Y+7205
X+13898Y+7205
X+14898Y+7205
X+14898Y+10205
X+13898Y+10205
X+12898Y+10205
X+11898Y+10205
X+10898Y+10205
X+9898Y+10205
X+8898Y+10205
X+5827Y+11614
X+5827Y+15551
X+3976Y+11614
X+3976Y+15551
X+5236Y+6220
X+7205Y+6220
X+1929Y+6260
X+3898Y+6260
X+3567Y+2323
X+4567Y+2323
X+10906Y+2795
X+6969Y+2795
T02
X+20394Y+7795
X+20394Y+9765
X+20945Y+16260
X+18975Y+16260
X+14134Y+16181
X+16104Y+16181
X+9565Y+16181
X+11535Y+16181
X+15551Y+3504
X+17521Y+3504
X+19491Y+3504
M30
