G04 PROTEUS RS274X GERBER FILE*
%FSLAX26Y26*%
%MOIN*%
G01*
%ADD13C,0.004000*%
%ADD25C,0.005000*%
%ADD26C,0.002500*%
D13*
X+889764Y+745472D02*
X+889764Y+695472D01*
X+864764Y+720472D02*
X+914764Y+720472D01*
X+989764Y+745472D02*
X+989764Y+695472D01*
X+964764Y+720472D02*
X+1014764Y+720472D01*
X+1089764Y+745472D02*
X+1089764Y+695472D01*
X+1064764Y+720472D02*
X+1114764Y+720472D01*
X+1189764Y+745472D02*
X+1189764Y+695472D01*
X+1164764Y+720472D02*
X+1214764Y+720472D01*
X+1289764Y+745472D02*
X+1289764Y+695472D01*
X+1264764Y+720472D02*
X+1314764Y+720472D01*
X+1389764Y+745472D02*
X+1389764Y+695472D01*
X+1364764Y+720472D02*
X+1414764Y+720472D01*
X+1489764Y+745472D02*
X+1489764Y+695472D01*
X+1464764Y+720472D02*
X+1514764Y+720472D01*
X+1489764Y+1045472D02*
X+1489764Y+995472D01*
X+1464764Y+1020472D02*
X+1514764Y+1020472D01*
X+1389764Y+1045472D02*
X+1389764Y+995472D01*
X+1364764Y+1020472D02*
X+1414764Y+1020472D01*
X+1289764Y+1045472D02*
X+1289764Y+995472D01*
X+1264764Y+1020472D02*
X+1314764Y+1020472D01*
X+1189764Y+1045472D02*
X+1189764Y+995472D01*
X+1164764Y+1020472D02*
X+1214764Y+1020472D01*
X+1089764Y+1045472D02*
X+1089764Y+995472D01*
X+1064764Y+1020472D02*
X+1114764Y+1020472D01*
X+989764Y+1045472D02*
X+989764Y+995472D01*
X+964764Y+1020472D02*
X+1014764Y+1020472D01*
X+889764Y+1045472D02*
X+889764Y+995472D01*
X+864764Y+1020472D02*
X+914764Y+1020472D01*
X+582677Y+1186417D02*
X+582677Y+1136417D01*
X+557677Y+1161417D02*
X+607677Y+1161417D01*
X+582677Y+1580118D02*
X+582677Y+1530118D01*
X+557677Y+1555118D02*
X+607677Y+1555118D01*
X+397638Y+1186417D02*
X+397638Y+1136417D01*
X+372638Y+1161417D02*
X+422638Y+1161417D01*
X+397638Y+1580118D02*
X+397638Y+1530118D01*
X+372638Y+1555118D02*
X+422638Y+1555118D01*
X+523622Y+647047D02*
X+523622Y+597047D01*
X+498622Y+622047D02*
X+548622Y+622047D01*
X+720472Y+647047D02*
X+720472Y+597047D01*
X+695472Y+622047D02*
X+745472Y+622047D01*
X+192913Y+650984D02*
X+192913Y+600984D01*
X+167913Y+625984D02*
X+217913Y+625984D01*
X+389764Y+650984D02*
X+389764Y+600984D01*
X+364764Y+625984D02*
X+414764Y+625984D01*
X+356693Y+257283D02*
X+356693Y+207283D01*
X+331693Y+232283D02*
X+381693Y+232283D01*
X+456693Y+257283D02*
X+456693Y+207283D01*
X+431693Y+232283D02*
X+481693Y+232283D01*
X+1090551Y+304528D02*
X+1090551Y+254528D01*
X+1065551Y+279528D02*
X+1115551Y+279528D01*
X+696850Y+304528D02*
X+696850Y+254528D01*
X+671850Y+279528D02*
X+721850Y+279528D01*
X+2021693Y+797205D02*
X+2057048Y+761850D01*
X+2021693Y+761850D02*
X+2057048Y+797205D01*
X+2021693Y+994205D02*
X+2057048Y+958850D01*
X+2021693Y+958850D02*
X+2057048Y+994205D01*
X+2076811Y+1643662D02*
X+2112166Y+1608307D01*
X+2076811Y+1608307D02*
X+2112166Y+1643662D01*
X+1879811Y+1643662D02*
X+1915166Y+1608307D01*
X+1879811Y+1608307D02*
X+1915166Y+1643662D01*
X+1395708Y+1635788D02*
X+1431063Y+1600433D01*
X+1395708Y+1600433D02*
X+1431063Y+1635788D01*
X+1592708Y+1635788D02*
X+1628063Y+1600433D01*
X+1592708Y+1600433D02*
X+1628063Y+1635788D01*
X+938866Y+1635788D02*
X+974221Y+1600433D01*
X+938866Y+1600433D02*
X+974221Y+1635788D01*
X+1135866Y+1635788D02*
X+1171221Y+1600433D01*
X+1135866Y+1600433D02*
X+1171221Y+1635788D01*
X+1537441Y+368071D02*
X+1572796Y+332716D01*
X+1537441Y+332716D02*
X+1572796Y+368071D01*
X+1734441Y+368071D02*
X+1769796Y+332716D01*
X+1734441Y+332716D02*
X+1769796Y+368071D01*
X+1931441Y+368071D02*
X+1966796Y+332716D01*
X+1931441Y+332716D02*
X+1966796Y+368071D01*
X+19685Y+23622D02*
X+2322835Y+23622D01*
X+2322835Y+1877953D01*
X+19685Y+1877953D01*
X+19685Y+23622D01*
D25*
X+17685Y-378378D02*
X+970685Y-378378D01*
X+970685Y-78378D01*
X+17685Y-78378D01*
X+17685Y-378378D01*
D26*
X+201686Y-78378D02*
X+201686Y-378378D01*
X+433686Y-78378D02*
X+433686Y-378378D01*
X+761686Y-78378D02*
X+761686Y-378378D01*
X+17685Y-185878D02*
X+970685Y-185878D01*
X+17685Y-280878D02*
X+970685Y-280878D01*
D25*
X+40185Y-142878D02*
X+46185Y-148878D01*
X+70185Y-148878D01*
X+76185Y-142878D01*
X+76185Y-136878D01*
X+70185Y-130878D01*
X+46185Y-130878D01*
X+40185Y-124878D01*
X+40185Y-118878D01*
X+46185Y-112878D01*
X+70185Y-112878D01*
X+76185Y-118878D01*
X+124185Y-112878D02*
X+88185Y-148878D01*
X+88185Y-112878D02*
X+106185Y-130878D01*
X+136185Y-148878D02*
X+136185Y-112878D01*
X+154185Y-130878D01*
X+172185Y-112878D01*
X+172185Y-148878D01*
X+224185Y-142878D02*
X+230185Y-148878D01*
X+254185Y-148878D01*
X+260185Y-142878D01*
X+260185Y-136878D01*
X+254185Y-130878D01*
X+230185Y-130878D01*
X+224185Y-124878D01*
X+224185Y-118878D01*
X+230185Y-112878D01*
X+254185Y-112878D01*
X+260185Y-118878D01*
X+278185Y-112878D02*
X+302185Y-112878D01*
X+290185Y-112878D02*
X+290185Y-148878D01*
X+278185Y-148878D02*
X+302185Y-148878D01*
X+320185Y-112878D02*
X+356185Y-112878D01*
X+320185Y-148878D01*
X+356185Y-148878D01*
X+404185Y-148878D02*
X+368185Y-148878D01*
X+368185Y-112878D01*
X+404185Y-112878D01*
X+368185Y-130878D02*
X+392185Y-130878D01*
X+456185Y-148878D02*
X+456185Y-112878D01*
X+486185Y-112878D01*
X+492185Y-118878D01*
X+492185Y-124878D01*
X+486185Y-130878D01*
X+456185Y-130878D01*
X+504185Y-112878D02*
X+504185Y-148878D01*
X+540185Y-148878D01*
X+552185Y-148878D02*
X+552185Y-124878D01*
X+564185Y-112878D01*
X+576185Y-112878D01*
X+588185Y-124878D01*
X+588185Y-148878D01*
X+552185Y-136878D02*
X+588185Y-136878D01*
X+600185Y-112878D02*
X+636185Y-112878D01*
X+618185Y-112878D02*
X+618185Y-148878D01*
X+684185Y-148878D02*
X+648185Y-148878D01*
X+648185Y-112878D01*
X+684185Y-112878D01*
X+648185Y-130878D02*
X+672185Y-130878D01*
X+696185Y-148878D02*
X+696185Y-112878D01*
X+720185Y-112878D01*
X+732185Y-124878D01*
X+732185Y-136878D01*
X+720185Y-148878D01*
X+696185Y-148878D01*
X+784185Y-124878D02*
X+796185Y-112878D01*
X+808185Y-112878D01*
X+820185Y-124878D01*
X+820185Y-136878D01*
X+808185Y-148878D01*
X+796185Y-148878D01*
X+784185Y-136878D01*
X+784185Y-124878D01*
X+808185Y-136878D02*
X+820185Y-148878D01*
X+832185Y-112878D02*
X+868185Y-112878D01*
X+850185Y-112878D02*
X+850185Y-148878D01*
X+916185Y-112878D02*
X+880185Y-148878D01*
X+880185Y-112878D02*
X+898185Y-130878D01*
D13*
X+114685Y-205878D02*
X+114685Y-255878D01*
X+89685Y-230878D02*
X+139685Y-230878D01*
D25*
X+236685Y-220878D02*
X+241685Y-215878D01*
X+256685Y-215878D01*
X+261685Y-220878D01*
X+261685Y-225878D01*
X+256685Y-230878D01*
X+261685Y-235878D01*
X+261685Y-240878D01*
X+256685Y-245878D01*
X+241685Y-245878D01*
X+236685Y-240878D01*
X+246685Y-230878D02*
X+256685Y-230878D01*
X+271685Y-240878D02*
X+271685Y-220878D01*
X+276685Y-215878D01*
X+296685Y-215878D01*
X+301685Y-220878D01*
X+301685Y-240878D01*
X+296685Y-245878D01*
X+276685Y-245878D01*
X+271685Y-240878D01*
X+271685Y-245878D02*
X+301685Y-215878D01*
X+316685Y-215878D02*
X+316685Y-240878D01*
X+321685Y-245878D01*
X+336685Y-245878D01*
X+341685Y-240878D01*
X+311685Y-225878D02*
X+336685Y-225878D01*
X+381685Y-245878D02*
X+381685Y-230878D01*
X+376685Y-225878D01*
X+356685Y-225878D01*
X+351685Y-230878D01*
X+351685Y-215878D02*
X+351685Y-245878D01*
X+498685Y-215878D02*
X+468685Y-245878D01*
X+468685Y-215878D02*
X+483685Y-230878D01*
X+538685Y-245878D02*
X+508685Y-245878D01*
X+508685Y-215878D01*
X+538685Y-215878D01*
X+508685Y-230878D02*
X+528685Y-230878D01*
X+548685Y-240878D02*
X+553685Y-245878D01*
X+573685Y-245878D01*
X+578685Y-240878D01*
X+578685Y-235878D01*
X+573685Y-230878D01*
X+553685Y-230878D01*
X+548685Y-225878D01*
X+548685Y-220878D01*
X+553685Y-215878D01*
X+573685Y-215878D01*
X+578685Y-220878D01*
X+806685Y-220878D02*
X+811685Y-215878D01*
X+826685Y-215878D01*
X+831685Y-220878D01*
X+831685Y-225878D01*
X+826685Y-230878D01*
X+811685Y-230878D01*
X+806685Y-235878D01*
X+806685Y-245878D01*
X+831685Y-245878D01*
X+871685Y-220878D02*
X+866685Y-215878D01*
X+851685Y-215878D01*
X+846685Y-220878D01*
X+846685Y-240878D01*
X+851685Y-245878D01*
X+866685Y-245878D01*
X+871685Y-240878D01*
X+871685Y-235878D01*
X+866685Y-230878D01*
X+846685Y-230878D01*
D13*
X+97007Y-308200D02*
X+132363Y-343556D01*
X+97007Y-343556D02*
X+132363Y-308200D01*
D25*
X+261685Y-315878D02*
X+256685Y-310878D01*
X+241685Y-310878D01*
X+236685Y-315878D01*
X+236685Y-335878D01*
X+241685Y-340878D01*
X+256685Y-340878D01*
X+261685Y-335878D01*
X+261685Y-330878D01*
X+256685Y-325878D01*
X+236685Y-325878D01*
X+271685Y-335878D02*
X+271685Y-315878D01*
X+276685Y-310878D01*
X+296685Y-310878D01*
X+301685Y-315878D01*
X+301685Y-335878D01*
X+296685Y-340878D01*
X+276685Y-340878D01*
X+271685Y-335878D01*
X+271685Y-340878D02*
X+301685Y-310878D01*
X+316685Y-310878D02*
X+316685Y-335878D01*
X+321685Y-340878D01*
X+336685Y-340878D01*
X+341685Y-335878D01*
X+311685Y-320878D02*
X+336685Y-320878D01*
X+381685Y-340878D02*
X+381685Y-325878D01*
X+376685Y-320878D01*
X+356685Y-320878D01*
X+351685Y-325878D01*
X+351685Y-310878D02*
X+351685Y-340878D01*
X+498685Y-310878D02*
X+468685Y-340878D01*
X+468685Y-310878D02*
X+483685Y-325878D01*
X+538685Y-340878D02*
X+508685Y-340878D01*
X+508685Y-310878D01*
X+538685Y-310878D01*
X+508685Y-325878D02*
X+528685Y-325878D01*
X+548685Y-335878D02*
X+553685Y-340878D01*
X+573685Y-340878D01*
X+578685Y-335878D01*
X+578685Y-330878D01*
X+573685Y-325878D01*
X+553685Y-325878D01*
X+548685Y-320878D01*
X+548685Y-315878D01*
X+553685Y-310878D01*
X+573685Y-310878D01*
X+578685Y-315878D01*
X+811685Y-320878D02*
X+821685Y-310878D01*
X+821685Y-340878D01*
X+851685Y-320878D02*
X+861685Y-310878D01*
X+861685Y-340878D01*
M02*
