G04 PROTEUS RS274X GERBER FILE*
%FSLAX26Y26*%
%MOIN*%
G01*
%ADD10R,0.070000X0.070000*%
%ADD11C,0.080000*%
%ADD12C,0.120000*%
%ADD13C,0.004000*%
D10*
X+889764Y+720472D03*
X+989764Y+720472D03*
X+1089764Y+720472D03*
X+1189764Y+720472D03*
X+1289764Y+720472D03*
X+1389764Y+720472D03*
X+1489764Y+720472D03*
X+1489764Y+1020472D03*
X+1389764Y+1020472D03*
X+1289764Y+1020472D03*
X+1189764Y+1020472D03*
X+1089764Y+1020472D03*
X+989764Y+1020472D03*
X+889764Y+1020472D03*
D11*
X+582677Y+1161417D03*
X+582677Y+1555118D03*
X+397638Y+1161417D03*
X+397638Y+1555118D03*
X+523622Y+622047D03*
X+720472Y+622047D03*
X+192913Y+625984D03*
X+389764Y+625984D03*
X+356693Y+232283D03*
X+456693Y+232283D03*
X+1090551Y+279528D03*
X+696850Y+279528D03*
D12*
X+2039370Y+779528D03*
X+2039370Y+976528D03*
X+2094488Y+1625984D03*
X+1897488Y+1625984D03*
X+1413386Y+1618110D03*
X+1610386Y+1618110D03*
X+956543Y+1618110D03*
X+1153543Y+1618110D03*
X+1555118Y+350394D03*
X+1752118Y+350394D03*
X+1949118Y+350394D03*
D13*
X+19685Y+23622D02*
X+2322835Y+23622D01*
X+2322835Y+1877953D01*
X+19685Y+1877953D01*
X+19685Y+23622D01*
M02*
