G04 PROTEUS RS274X GERBER FILE*
%FSLAX26Y26*%
%MOIN*%
G01*
%ADD13C,0.004000*%
D13*
X+839764Y+920472D02*
X+839764Y+970472D01*
X+839764Y+770472D02*
X+839764Y+820472D01*
X+889764Y+870472D02*
X+888805Y+880660D01*
X+886030Y+890097D01*
X+881590Y+898597D01*
X+875639Y+905972D01*
X+868328Y+912034D01*
X+859811Y+916597D01*
X+850239Y+919472D01*
X+839764Y+920472D01*
X+889764Y+870472D02*
X+888805Y+859997D01*
X+886030Y+850425D01*
X+881590Y+841908D01*
X+875639Y+834597D01*
X+868328Y+828646D01*
X+859811Y+824206D01*
X+850239Y+821431D01*
X+839764Y+820472D01*
X+839764Y+770472D02*
X+1539764Y+770472D01*
X+1539764Y+970472D01*
X+839764Y+970472D01*
X+797764Y+828472D02*
X+822764Y+828472D01*
X+827764Y+833722D01*
X+827764Y+854722D01*
X+822764Y+859972D01*
X+797764Y+859972D01*
X+807764Y+880972D02*
X+797764Y+891472D01*
X+827764Y+891472D01*
X+543307Y+1279528D02*
X+543307Y+1437008D01*
X+622047Y+1437008D01*
X+622047Y+1279528D01*
X+543307Y+1279528D01*
X+582677Y+1279528D02*
X+582677Y+1240157D01*
X+582677Y+1437008D02*
X+582677Y+1476378D01*
X+531307Y+1316268D02*
X+501307Y+1316268D01*
X+501307Y+1342518D01*
X+506307Y+1347768D01*
X+511307Y+1347768D01*
X+516307Y+1342518D01*
X+516307Y+1316268D01*
X+516307Y+1342518D02*
X+521307Y+1347768D01*
X+531307Y+1347768D01*
X+511307Y+1368768D02*
X+501307Y+1379268D01*
X+531307Y+1379268D01*
X+358268Y+1279528D02*
X+358268Y+1437008D01*
X+437008Y+1437008D01*
X+437008Y+1279528D01*
X+358268Y+1279528D01*
X+397638Y+1279528D02*
X+397638Y+1240157D01*
X+397638Y+1437008D02*
X+397638Y+1476378D01*
X+346268Y+1316268D02*
X+316268Y+1316268D01*
X+316268Y+1342518D01*
X+321268Y+1347768D01*
X+326268Y+1347768D01*
X+331268Y+1342518D01*
X+331268Y+1316268D01*
X+331268Y+1342518D02*
X+336268Y+1347768D01*
X+346268Y+1347768D01*
X+321268Y+1363518D02*
X+316268Y+1368768D01*
X+316268Y+1384518D01*
X+321268Y+1389768D01*
X+326268Y+1389768D01*
X+331268Y+1384518D01*
X+331268Y+1368768D01*
X+336268Y+1363518D01*
X+346268Y+1363518D01*
X+346268Y+1389768D01*
X+472441Y+472441D02*
X+771654Y+472441D01*
X+771654Y+771654D01*
X+472441Y+771654D01*
X+472441Y+472441D01*
X+551181Y+691654D02*
X+551181Y+751654D01*
X+601181Y+751654D01*
X+611181Y+741654D01*
X+611181Y+731654D01*
X+601181Y+721654D01*
X+551181Y+721654D01*
X+631181Y+691654D02*
X+631181Y+751654D01*
X+681181Y+751654D01*
X+691181Y+741654D01*
X+691181Y+731654D01*
X+681181Y+721654D01*
X+691181Y+711654D01*
X+691181Y+701654D01*
X+681181Y+691654D01*
X+631181Y+691654D01*
X+631181Y+721654D02*
X+681181Y+721654D01*
X+580047Y+783654D02*
X+580047Y+813654D01*
X+606297Y+813654D01*
X+611547Y+808654D01*
X+611547Y+803654D01*
X+606297Y+798654D01*
X+611547Y+793654D01*
X+611547Y+788654D01*
X+606297Y+783654D01*
X+580047Y+783654D01*
X+580047Y+798654D02*
X+606297Y+798654D01*
X+632547Y+803654D02*
X+643047Y+813654D01*
X+643047Y+783654D01*
X+141732Y+476378D02*
X+440945Y+476378D01*
X+440945Y+775591D01*
X+141732Y+775591D01*
X+141732Y+476378D01*
X+220472Y+695591D02*
X+220472Y+755591D01*
X+270472Y+755591D01*
X+280472Y+745591D01*
X+280472Y+735591D01*
X+270472Y+725591D01*
X+220472Y+725591D01*
X+300472Y+695591D02*
X+300472Y+755591D01*
X+350472Y+755591D01*
X+360472Y+745591D01*
X+360472Y+735591D01*
X+350472Y+725591D01*
X+360472Y+715591D01*
X+360472Y+705591D01*
X+350472Y+695591D01*
X+300472Y+695591D01*
X+300472Y+725591D02*
X+350472Y+725591D01*
X+249339Y+787591D02*
X+249339Y+817591D01*
X+275589Y+817591D01*
X+280839Y+812591D01*
X+280839Y+807591D01*
X+275589Y+802591D01*
X+280839Y+797591D01*
X+280839Y+792591D01*
X+275589Y+787591D01*
X+249339Y+787591D01*
X+249339Y+802591D02*
X+275589Y+802591D01*
X+296589Y+812591D02*
X+301839Y+817591D01*
X+317589Y+817591D01*
X+322839Y+812591D01*
X+322839Y+807591D01*
X+317589Y+802591D01*
X+301839Y+802591D01*
X+296589Y+797591D01*
X+296589Y+787591D01*
X+322839Y+787591D01*
X+300394Y+291339D02*
X+313578Y+311147D01*
X+323452Y+321651D01*
X+335550Y+331693D01*
X+349897Y+340628D01*
X+366520Y+347810D01*
X+385443Y+352593D01*
X+406693Y+354331D01*
X+431648Y+351903D01*
X+454725Y+344915D01*
X+475478Y+333816D01*
X+493461Y+319052D01*
X+508225Y+301069D01*
X+519324Y+280316D01*
X+526312Y+257238D01*
X+528740Y+232283D01*
X+526312Y+207328D01*
X+519324Y+184251D01*
X+508225Y+163498D01*
X+493461Y+145515D01*
X+475478Y+130751D01*
X+454725Y+119652D01*
X+431648Y+112664D01*
X+406693Y+110236D01*
X+385281Y+112135D01*
X+365966Y+117310D01*
X+348859Y+124977D01*
X+334074Y+134350D01*
X+321722Y+144646D01*
X+311917Y+155081D01*
X+304770Y+164870D01*
X+300394Y+173228D01*
X+300394Y+291339D02*
X+300394Y+173228D01*
X+438189Y+304331D02*
X+475689Y+304331D01*
X+456939Y+324331D02*
X+456939Y+284331D01*
X+338140Y+304331D02*
X+369390Y+304331D01*
X+372567Y+366331D02*
X+372567Y+396331D01*
X+393567Y+396331D01*
X+404067Y+386331D01*
X+404067Y+376331D01*
X+393567Y+366331D01*
X+372567Y+366331D01*
X+425067Y+386331D02*
X+435567Y+396331D01*
X+435567Y+366331D01*
X+972441Y+240157D02*
X+814961Y+240157D01*
X+814961Y+318898D01*
X+972441Y+318898D01*
X+972441Y+240157D01*
X+972441Y+279528D02*
X+1011811Y+279528D01*
X+814961Y+279528D02*
X+775591Y+279528D01*
X+851701Y+198157D02*
X+851701Y+228157D01*
X+877951Y+228157D01*
X+883201Y+223157D01*
X+883201Y+218157D01*
X+877951Y+213157D01*
X+851701Y+213157D01*
X+877951Y+213157D02*
X+883201Y+208157D01*
X+883201Y+198157D01*
X+898951Y+223157D02*
X+904201Y+228157D01*
X+919951Y+228157D01*
X+925201Y+223157D01*
X+925201Y+218157D01*
X+919951Y+213157D01*
X+925201Y+208157D01*
X+925201Y+203157D01*
X+919951Y+198157D01*
X+904201Y+198157D01*
X+898951Y+203157D01*
X+909451Y+213157D02*
X+919951Y+213157D01*
X+2189370Y+679528D02*
X+1889370Y+679528D01*
X+1889370Y+1079528D02*
X+2189370Y+1079528D01*
X+2189370Y+679528D02*
X+2189370Y+1079528D01*
X+1889370Y+679528D02*
X+1889370Y+1079528D01*
X+1867370Y+837528D02*
X+1872370Y+837528D01*
X+1877370Y+842778D01*
X+1877370Y+863778D01*
X+1872370Y+869028D01*
X+1847370Y+869028D01*
X+1857370Y+890028D02*
X+1847370Y+900528D01*
X+1877370Y+900528D01*
X+2194488Y+1775984D02*
X+2194488Y+1475984D01*
X+1794488Y+1475984D02*
X+1794488Y+1775984D01*
X+2194488Y+1775984D02*
X+1794488Y+1775984D01*
X+2194488Y+1475984D02*
X+1794488Y+1475984D01*
X+1944614Y+1798315D02*
X+1944614Y+1793315D01*
X+1949864Y+1788315D01*
X+1970864Y+1788315D01*
X+1976114Y+1793315D01*
X+1976114Y+1818315D01*
X+1991864Y+1813315D02*
X+1997114Y+1818315D01*
X+2012864Y+1818315D01*
X+2018114Y+1813315D01*
X+2018114Y+1808315D01*
X+2012864Y+1803315D01*
X+1997114Y+1803315D01*
X+1991864Y+1798315D01*
X+1991864Y+1788315D01*
X+2018114Y+1788315D01*
X+1313386Y+1468110D02*
X+1313386Y+1768110D01*
X+1713386Y+1768110D02*
X+1713386Y+1468110D01*
X+1313386Y+1468110D02*
X+1713386Y+1468110D01*
X+1313386Y+1768110D02*
X+1713386Y+1768110D01*
X+1471386Y+1790110D02*
X+1471386Y+1785110D01*
X+1476636Y+1780110D01*
X+1497636Y+1780110D01*
X+1502886Y+1785110D01*
X+1502886Y+1810110D01*
X+1518636Y+1805110D02*
X+1523886Y+1810110D01*
X+1539636Y+1810110D01*
X+1544886Y+1805110D01*
X+1544886Y+1800110D01*
X+1539636Y+1795110D01*
X+1544886Y+1790110D01*
X+1544886Y+1785110D01*
X+1539636Y+1780110D01*
X+1523886Y+1780110D01*
X+1518636Y+1785110D01*
X+1529136Y+1795110D02*
X+1539636Y+1795110D01*
X+856543Y+1468110D02*
X+856543Y+1768110D01*
X+1256543Y+1768110D02*
X+1256543Y+1468110D01*
X+856543Y+1468110D02*
X+1256543Y+1468110D01*
X+856543Y+1768110D02*
X+1256543Y+1768110D01*
X+1014543Y+1790110D02*
X+1014543Y+1785110D01*
X+1019793Y+1780110D01*
X+1040793Y+1780110D01*
X+1046043Y+1785110D01*
X+1046043Y+1810110D01*
X+1088043Y+1790110D02*
X+1056543Y+1790110D01*
X+1077543Y+1810110D01*
X+1077543Y+1780110D01*
X+1455118Y+200394D02*
X+1455118Y+500394D01*
X+2055118Y+500394D02*
X+2055118Y+200394D01*
X+1455118Y+500394D02*
X+2055118Y+500394D01*
X+1455118Y+200394D02*
X+2055118Y+200394D01*
X+1713118Y+522394D02*
X+1713118Y+517394D01*
X+1718368Y+512394D01*
X+1739368Y+512394D01*
X+1744618Y+517394D01*
X+1744618Y+542394D01*
X+1786618Y+542394D02*
X+1760368Y+542394D01*
X+1760368Y+532394D01*
X+1781368Y+532394D01*
X+1786618Y+527394D01*
X+1786618Y+517394D01*
X+1781368Y+512394D01*
X+1765618Y+512394D01*
X+1760368Y+517394D01*
X+19685Y+23622D02*
X+2322835Y+23622D01*
X+2322835Y+1877953D01*
X+19685Y+1877953D01*
X+19685Y+23622D01*
M02*
