G04 PROTEUS RS274X GERBER FILE*
%FSLAX26Y26*%
%MOIN*%
G01*
%ADD13C,0.004000*%
%ADD18C,0.028000*%
%ADD19C,0.017587*%
%ADD70C,0.032000*%
%ADD71C,0.005512*%
%ADD20C,0.008240*%
%ADD21C,0.007416*%
%ADD22C,0.048000*%
%ADD23C,0.007680*%
%ADD24C,0.013133*%
D13*
X+837764Y+685472D02*
X+1541764Y+685472D01*
X+1541764Y+1055472D01*
X+837764Y+1055472D01*
X+837764Y+685472D01*
D18*
X+889764Y+720472D02*
X+889764Y+720472D01*
D19*
X+1064484Y+923232D02*
X+1064484Y+835299D01*
X+1084269Y+817712D01*
X+1163408Y+817712D01*
X+1183193Y+835299D01*
X+1183193Y+923232D01*
X+1262334Y+888059D02*
X+1301904Y+923232D01*
X+1301904Y+817712D01*
D13*
X+541307Y+1121417D02*
X+624047Y+1121417D01*
X+624047Y+1595118D01*
X+541307Y+1595118D01*
X+541307Y+1121417D01*
D70*
X+582677Y+1161417D02*
X+582677Y+1161417D01*
D71*
X+599212Y+1336661D02*
X+566142Y+1336661D01*
X+566142Y+1367665D01*
X+571653Y+1373866D01*
X+577165Y+1373866D01*
X+582677Y+1367665D01*
X+582677Y+1336661D01*
X+582677Y+1367665D02*
X+588189Y+1373866D01*
X+599212Y+1373866D01*
X+577165Y+1398669D02*
X+566142Y+1411070D01*
X+599212Y+1411070D01*
D13*
X+356268Y+1121417D02*
X+439008Y+1121417D01*
X+439008Y+1595118D01*
X+356268Y+1595118D01*
X+356268Y+1121417D01*
D70*
X+397638Y+1161417D02*
X+397638Y+1161417D01*
D71*
X+414173Y+1336661D02*
X+381103Y+1336661D01*
X+381103Y+1367665D01*
X+386614Y+1373866D01*
X+392126Y+1373866D01*
X+397638Y+1367665D01*
X+397638Y+1336661D01*
X+397638Y+1367665D02*
X+403150Y+1373866D01*
X+414173Y+1373866D01*
X+386614Y+1392468D02*
X+381103Y+1398669D01*
X+381103Y+1417271D01*
X+386614Y+1423472D01*
X+392126Y+1423472D01*
X+397638Y+1417271D01*
X+397638Y+1398669D01*
X+403150Y+1392468D01*
X+414173Y+1392468D01*
X+414173Y+1423472D01*
D13*
X+470441Y+470441D02*
X+773654Y+470441D01*
X+773654Y+773654D01*
X+470441Y+773654D01*
X+470441Y+470441D01*
D70*
X+523622Y+622047D02*
X+523622Y+622047D01*
D20*
X+681358Y+547887D02*
X+631918Y+547887D01*
X+631918Y+594237D01*
X+640158Y+603507D01*
X+648398Y+603507D01*
X+656638Y+594237D01*
X+664878Y+603507D01*
X+673118Y+603507D01*
X+681358Y+594237D01*
X+681358Y+547887D01*
X+656638Y+547887D02*
X+656638Y+594237D01*
X+648398Y+640587D02*
X+631918Y+659127D01*
X+681358Y+659127D01*
D13*
X+139732Y+474378D02*
X+442945Y+474378D01*
X+442945Y+777591D01*
X+139732Y+777591D01*
X+139732Y+474378D01*
D70*
X+192913Y+625984D02*
X+192913Y+625984D01*
D20*
X+350649Y+551824D02*
X+301209Y+551824D01*
X+301209Y+598174D01*
X+309449Y+607444D01*
X+317689Y+607444D01*
X+325929Y+598174D01*
X+334169Y+607444D01*
X+342409Y+607444D01*
X+350649Y+598174D01*
X+350649Y+551824D01*
X+325929Y+551824D02*
X+325929Y+598174D01*
X+309449Y+635254D02*
X+301209Y+644524D01*
X+301209Y+672334D01*
X+309449Y+681604D01*
X+317689Y+681604D01*
X+325929Y+672334D01*
X+325929Y+644524D01*
X+334169Y+635254D01*
X+350649Y+635254D01*
X+350649Y+681604D01*
D13*
X+298394Y+108236D02*
X+530740Y+108236D01*
X+530740Y+356331D01*
X+298394Y+356331D01*
X+298394Y+108236D01*
D70*
X+356693Y+232283D02*
X+356693Y+232283D01*
D21*
X+473965Y+165541D02*
X+429470Y+165541D01*
X+429470Y+198912D01*
X+444301Y+215597D01*
X+459133Y+215597D01*
X+473965Y+198912D01*
X+473965Y+165541D01*
X+444301Y+248968D02*
X+429470Y+265654D01*
X+473965Y+265654D01*
D13*
X+656850Y+238157D02*
X+1130551Y+238157D01*
X+1130551Y+320898D01*
X+656850Y+320898D01*
X+656850Y+238157D01*
D70*
X+1090551Y+279528D02*
X+1090551Y+279528D01*
D71*
X+816094Y+262993D02*
X+816094Y+296063D01*
X+847098Y+296063D01*
X+853299Y+290552D01*
X+853299Y+285040D01*
X+847098Y+279528D01*
X+816094Y+279528D01*
X+847098Y+279528D02*
X+853299Y+274016D01*
X+853299Y+262993D01*
X+871901Y+290552D02*
X+878102Y+296063D01*
X+896704Y+296063D01*
X+902905Y+290552D01*
X+902905Y+285040D01*
X+896704Y+279528D01*
X+902905Y+274016D01*
X+902905Y+268504D01*
X+896704Y+262993D01*
X+878102Y+262993D01*
X+871901Y+268504D01*
X+884302Y+279528D02*
X+896704Y+279528D01*
D13*
X+1887370Y+677528D02*
X+2191370Y+677528D01*
X+2191370Y+1081528D01*
X+1887370Y+1081528D01*
X+1887370Y+677528D01*
D22*
X+2039370Y+779528D02*
X+2039370Y+779528D01*
D23*
X+1970250Y+934848D02*
X+1970250Y+927168D01*
X+1978890Y+919488D01*
X+2013450Y+919488D01*
X+2022090Y+927168D01*
X+2022090Y+965568D01*
X+2056650Y+950208D02*
X+2073930Y+965568D01*
X+2073930Y+919488D01*
D13*
X+1792488Y+1473984D02*
X+2196488Y+1473984D01*
X+2196488Y+1777984D01*
X+1792488Y+1777984D01*
X+1792488Y+1473984D01*
D22*
X+2094488Y+1625984D02*
X+2094488Y+1625984D01*
D23*
X+1939168Y+1556865D02*
X+1946848Y+1556865D01*
X+1954528Y+1565505D01*
X+1954528Y+1600065D01*
X+1946848Y+1608705D01*
X+1908448Y+1608705D01*
X+1916128Y+1634625D02*
X+1908448Y+1643265D01*
X+1908448Y+1669185D01*
X+1916128Y+1677825D01*
X+1923808Y+1677825D01*
X+1931488Y+1669185D01*
X+1931488Y+1643265D01*
X+1939168Y+1634625D01*
X+1954528Y+1634625D01*
X+1954528Y+1677825D01*
D13*
X+1311386Y+1466110D02*
X+1715386Y+1466110D01*
X+1715386Y+1770110D01*
X+1311386Y+1770110D01*
X+1311386Y+1466110D01*
D22*
X+1413386Y+1618110D02*
X+1413386Y+1618110D01*
D23*
X+1584066Y+1548991D02*
X+1591746Y+1548991D01*
X+1599426Y+1557631D01*
X+1599426Y+1592191D01*
X+1591746Y+1600831D01*
X+1553346Y+1600831D01*
X+1561026Y+1626751D02*
X+1553346Y+1635391D01*
X+1553346Y+1661311D01*
X+1561026Y+1669951D01*
X+1568706Y+1669951D01*
X+1576386Y+1661311D01*
X+1584066Y+1669951D01*
X+1591746Y+1669951D01*
X+1599426Y+1661311D01*
X+1599426Y+1635391D01*
X+1591746Y+1626751D01*
X+1576386Y+1644031D02*
X+1576386Y+1661311D01*
D13*
X+854543Y+1466110D02*
X+1258543Y+1466110D01*
X+1258543Y+1770110D01*
X+854543Y+1770110D01*
X+854543Y+1466110D01*
D22*
X+956543Y+1618110D02*
X+956543Y+1618110D01*
D23*
X+1127223Y+1548991D02*
X+1134903Y+1548991D01*
X+1142583Y+1557631D01*
X+1142583Y+1592191D01*
X+1134903Y+1600831D01*
X+1096503Y+1600831D01*
X+1127223Y+1669951D02*
X+1127223Y+1618111D01*
X+1096503Y+1652671D01*
X+1142583Y+1652671D01*
D13*
X+1453118Y+198394D02*
X+2057118Y+198394D01*
X+2057118Y+502394D01*
X+1453118Y+502394D01*
X+1453118Y+198394D01*
D22*
X+1555118Y+350394D02*
X+1555118Y+350394D01*
D24*
X+1699919Y+337260D02*
X+1699919Y+324127D01*
X+1714694Y+310994D01*
X+1773793Y+310994D01*
X+1788569Y+324127D01*
X+1788569Y+389793D01*
X+1906769Y+389793D02*
X+1832894Y+389793D01*
X+1832894Y+363527D01*
X+1891993Y+363527D01*
X+1906769Y+350394D01*
X+1906769Y+324127D01*
X+1891993Y+310994D01*
X+1847669Y+310994D01*
X+1832894Y+324127D01*
D13*
X+19685Y+23622D02*
X+2322835Y+23622D01*
X+2322835Y+1877953D01*
X+19685Y+1877953D01*
X+19685Y+23622D01*
M02*
